<svg xmlns="http://www.w3.org/2000/svg" xml:space="preserve" height="32" style="shape-rendering:geometricPrecision;text-rendering:geometricPrecision;image-rendering:optimizeQuality;fill-rule:evenodd;clip-rule:evenodd" viewBox="0 0 846.66 846.66"><path d="M725.87 471.23v190.69c0 71.8-58.67 130.47-130.47 130.47H140.94c-71.8 0-130.47-58.67-130.47-130.47V184.74c0-71.8 58.67-130.47 130.47-130.47H595.4c71.8 0 130.47 58.67 130.47 130.47v27.84c63.43 10.05 110.3 64.97 110.3 129.33s-46.87 119.28-110.3 129.32m-75.56-107.54c-19.2-19.2 10-48.4 29.2-29.2l12.62 12.62 36.31-54.17c15.04-22.46 49.24.43 34.19 22.9l-49.33 73.61c-6.61 11.89-22.89 14.33-32.65 4.57zm34.27-151.11v-27.84c0-49-40.18-89.18-89.18-89.18H140.94c-49 0-89.17 40.18-89.17 89.18v477.18c0 49 40.17 89.18 89.17 89.18H595.4c49 0 89.18-40.18 89.18-89.18V471.23c-63.43-10.04-110.3-64.96-110.3-129.32s46.87-119.28 110.3-129.33m20.64 39.67c-49.51 0-89.65 40.14-89.65 89.66 0 49.51 40.14 89.65 89.65 89.65 49.52 0 89.66-40.14 89.66-89.65 0-49.52-40.14-89.66-89.66-89.66M139.05 692.98c-27.15 0-27.15-41.3 0-41.3h458.24c27.16 0 27.16 41.3 0 41.3zm0-75.11c-27.15 0-27.15-41.3 0-41.3h458.24c27.16 0 27.16 41.3 0 41.3zm0-75.11c-27.15 0-27.15-41.3 0-41.3h318.12c27.15 0 27.15 41.3 0 41.3zm117.4-389.08c46.79 0 84.72 37.94 84.72 84.72 0 14.86-3.89 29.4-11.31 42.26 28.06 21.96 44.72 55.51 44.72 91.26V447c0 11.4-9.25 20.65-20.65 20.65H158.97c-11.4 0-20.64-9.25-20.64-20.65v-75.08c0-35.75 16.65-69.3 44.71-91.26a84.45 84.45 0 0 1-11.31-42.26c0-46.78 37.94-84.72 84.72-84.72m0 41.29c-23.98 0-43.43 19.44-43.43 43.43 0 12.35 5.07 23.95 14.22 32.26 10.68 9.7 8.3 27.4-4.97 33.75-25.99 12.45-42.65 38.67-42.65 67.51v54.44h153.67v-54.44c0-28.39-16.14-54.25-41.5-66.94-13.9-5.61-17.49-24.05-6.16-34.36 9.16-8.3 14.25-19.86 14.25-32.22 0-23.98-19.44-43.43-43.43-43.43" style="fill:#fff;fill-rule:nonzero"/></svg>